PathFileType  4	(X/Y/Z) /dataNAS/people/anoopai/OpenCap/opencap-core/Examples/Data/d712a0c6-d1a0-423f-8dc2-b78d41b5c55e/MarkerData/PreAugmentation
DataRate	CameraRate	NumFrames	NumMarkers	Units	OrigDataRate	OrigDataStartFrame	OrigNumFrames
60.0	60.0	17	20	m	60.0	219	874
Frame#	Time	Neck			RShoulder			RElbow			RWrist			LShoulder			LElbow			LWrist			midHip			RHip			RKnee			RAnkle			LHip			LKnee			LAnkle			LBigToe			LSmallToe			LHeel			RBigToe			RSmallToe			RHeel			
		X1	Y1	Z1	X2	Y2	Z2	X3	Y3	Z3	X4	Y4	Z4	X5	Y5	Z5	X6	Y6	Z6	X7	Y7	Z7	X8	Y8	Z8	X9	Y9	Z9	X10	Y10	Z10	X11	Y11	Z11	X12	Y12	Z12	X13	Y13	Z13	X14	Y14	Z14	X15	Y15	Z15	X16	Y16	Z16	X17	Y17	Z17	X18	Y18	Z18	X19	Y19	Z19	X20	Y20	Z20	

219	3.6333333	0.3420100	0.7891100	-0.1366000	0.4187000	0.7798500	-0.2854700	0.3895200	0.5222100	-0.3858200	0.1953600	0.7390800	-0.4320100	0.2816400	0.8005100	0.0190900	0.1931500	0.5615700	0.1282000	0.0096700	0.7799200	-0.0272400	0.3035400	0.2310100	-0.1302600	0.3475500	0.2293600	-0.2343200	0.3074100	-0.1696100	-0.2830900	0.6858700	-0.2571800	-0.0956700	0.2679400	0.2350700	-0.0232100	0.2015100	-0.1569300	-0.0003000	0.6106300	-0.2438800	0.1076600	0.6693700	-0.4348500	0.1614900	0.6685300	-0.4333100	0.1612800	0.6715900	-0.2270500	0.1093900	0.7250000	-0.4632900	-0.1270900	0.7245600	-0.4612300	-0.1270600	0.7449800	-0.2355600	-0.0509000
220	3.6500000	0.3405700	0.7893300	-0.1371100	0.4172500	0.7801100	-0.2859200	0.3876000	0.5223500	-0.3863500	0.1922700	0.7388100	-0.4326300	0.2802300	0.8005600	0.0185600	0.1917600	0.5616400	0.1276400	0.0074700	0.7776300	-0.0276400	0.3021700	0.2305200	-0.1305800	0.3460700	0.2290700	-0.2348500	0.3067700	-0.1697900	-0.2832200	0.6848200	-0.2564600	-0.0968600	0.2665600	0.2346500	-0.0234100	0.2010300	-0.1569500	-0.0004000	0.6107100	-0.2434500	0.1078200	0.6698700	-0.4342200	0.1611900	0.6690100	-0.4326900	0.1610000	0.6713900	-0.2266300	0.1096400	0.7266300	-0.4630400	-0.1248100	0.7261700	-0.4610600	-0.1248300	0.7440600	-0.2340900	-0.0521500
221	3.6666667	0.3390100	0.7894500	-0.1376600	0.4156800	0.7802100	-0.2864300	0.3855600	0.5221300	-0.3868600	0.1892400	0.7386700	-0.4332500	0.2786900	0.8005700	0.0179800	0.1901200	0.5615900	0.1270000	0.0055900	0.7782000	-0.0282000	0.3008400	0.2300500	-0.1308300	0.3446900	0.2284600	-0.2352200	0.3059600	-0.1700800	-0.2833900	0.6837900	-0.2556400	-0.0980500	0.2652200	0.2342000	-0.0235600	0.2006100	-0.1570400	-0.0004400	0.6107200	-0.2432100	0.1080500	0.6705100	-0.4335400	0.1610100	0.6696400	-0.4320300	0.1608400	0.6711700	-0.2261900	0.1099600	0.7285300	-0.4624700	-0.1225000	0.7280300	-0.4605500	-0.1225800	0.7429500	-0.2326900	-0.0535000
222	3.6833333	0.3372400	0.7896400	-0.1383100	0.4138600	0.7804500	-0.2870700	0.3834800	0.5218700	-0.3873400	0.1862900	0.7385800	-0.4338600	0.2769800	0.8005800	0.0173300	0.1882500	0.5614600	0.1262900	0.0042900	0.7790200	-0.0283800	0.2995500	0.2296600	-0.1310300	0.3433400	0.2280000	-0.2355300	0.3050500	-0.1703900	-0.2835700	0.6828500	-0.2547200	-0.0991800	0.2639100	0.2338600	-0.0236900	0.2002800	-0.1571500	-0.0004300	0.6105800	-0.2429300	0.1083100	0.6713400	-0.4328100	0.1609900	0.6704700	-0.4313300	0.1608500	0.6709000	-0.2257800	0.1103300	0.7307400	-0.4614700	-0.1202200	0.7302000	-0.4596200	-0.1203500	0.7418300	-0.2313400	-0.0548700
223	3.7000000	0.3352200	0.7896500	-0.1390400	0.4117400	0.7804600	-0.2878200	0.3814600	0.5215700	-0.3878200	0.1834100	0.7380300	-0.4344300	0.2750600	0.8006100	0.0166200	0.1861900	0.5613100	0.1255300	0.0034900	0.7801900	-0.0282600	0.2983100	0.2294400	-0.1312100	0.3420900	0.2274800	-0.2357200	0.3042000	-0.1706400	-0.2837600	0.6820700	-0.2537100	-0.1001900	0.2626700	0.2336400	-0.0238100	0.2000500	-0.1572200	-0.0003900	0.6102900	-0.2426300	0.1085900	0.6723900	-0.4321400	0.1611300	0.6715000	-0.4306700	0.1610100	0.6705400	-0.2253300	0.1107100	0.7332800	-0.4599800	-0.1180100	0.7326900	-0.4582100	-0.1181900	0.7408700	-0.2300200	-0.0561500
224	3.7166667	0.3329300	0.7897400	-0.1398600	0.4092800	0.7805200	-0.2887000	0.3794800	0.5213100	-0.3883300	0.1803100	0.7381000	-0.4351300	0.2729700	0.8006900	0.0158400	0.1840100	0.5612200	0.1247600	0.0030500	0.7812400	-0.0278600	0.2971300	0.2292800	-0.1313600	0.3408600	0.2271800	-0.2358900	0.3035100	-0.1707300	-0.2839400	0.6814100	-0.2526000	-0.1010800	0.2614900	0.2336200	-0.0239500	0.1999200	-0.1572200	-0.0003600	0.6099000	-0.2423200	0.1089100	0.6734900	-0.4315300	0.1613700	0.6725900	-0.4300700	0.1612600	0.6701300	-0.2249700	0.1111200	0.7360700	-0.4580400	-0.1158900	0.7354300	-0.4563500	-0.1161200	0.7401000	-0.2285800	-0.0573400
225	3.7333333	0.3304200	0.7898000	-0.1407700	0.4065200	0.7805500	-0.2896900	0.3774900	0.5211100	-0.3889600	0.1769200	0.7384900	-0.4359600	0.2707300	0.8008200	0.0149900	0.1817800	0.5612300	0.1239800	0.0028000	0.7822900	-0.0273400	0.2959800	0.2292800	-0.1315300	0.3396100	0.2270500	-0.2360900	0.3030500	-0.1705800	-0.2841000	0.6808800	-0.2514400	-0.1019000	0.2604600	0.2337700	-0.0241100	0.1998800	-0.1571300	-0.0003400	0.6095100	-0.2422500	0.1093100	0.6744600	-0.4310300	0.1616300	0.6735500	-0.4295900	0.1615400	0.6697100	-0.2247900	0.1115700	0.7390100	-0.4559000	-0.1138200	0.7383100	-0.4542700	-0.1140900	0.7395600	-0.2270500	-0.0584300
226	3.7500000	0.3277500	0.7899500	-0.1417500	0.4035100	0.7806500	-0.2907700	0.3754300	0.5209400	-0.3897500	0.1734100	0.7380800	-0.4368100	0.2684200	0.8009800	0.0140800	0.1795500	0.5614100	0.1232100	0.0026100	0.7823000	-0.0266600	0.2948900	0.2293900	-0.1317500	0.3383100	0.2270400	-0.2363300	0.3028600	-0.1702300	-0.2842300	0.6805300	-0.2503100	-0.1026400	0.2596400	0.2339800	-0.0242900	0.1999100	-0.1569900	-0.0003300	0.6090200	-0.2421700	0.1096900	0.6752300	-0.4307400	0.1619200	0.6742900	-0.4293000	0.1618300	0.6691200	-0.2244500	0.1119300	0.7417800	-0.4535500	-0.1118700	0.7410300	-0.4519900	-0.1121800	0.7393800	-0.2256000	-0.0593900
227	3.7666667	0.3249900	0.7900700	-0.1427900	0.4003300	0.7807100	-0.2919100	0.3732600	0.5207900	-0.3907200	0.1697200	0.7376200	-0.4377600	0.2660800	0.8012000	0.0130900	0.1773400	0.5617700	0.1224800	0.0021500	0.7838200	-0.0263600	0.2939100	0.2294100	-0.1319700	0.3370200	0.2268600	-0.2365700	0.3029400	-0.1697100	-0.2843400	0.6804100	-0.2492100	-0.1033000	0.2590700	0.2342300	-0.0244900	0.1999500	-0.1568000	-0.0003500	0.6085300	-0.2422000	0.1100800	0.6758400	-0.4307500	0.1622700	0.6748700	-0.4293100	0.1621700	0.6685400	-0.2243100	0.1122800	0.7442400	-0.4511900	-0.1100400	0.7434700	-0.4496900	-0.1103700	0.7394400	-0.2240200	-0.0602800
228	3.7833333	0.3221500	0.7902600	-0.1439000	0.3970300	0.7806400	-0.2931100	0.3710100	0.5206400	-0.3918300	0.1660100	0.7369700	-0.4387900	0.2637500	0.8014500	0.0120500	0.1751800	0.5622800	0.1217600	0.0015400	0.7835800	-0.0259500	0.2930200	0.2294900	-0.1322600	0.3356800	0.2269800	-0.2369300	0.3031500	-0.1690300	-0.2844500	0.6805500	-0.2481900	-0.1038700	0.2587100	0.2344900	-0.0247400	0.2000000	-0.1566200	-0.0003600	0.6081100	-0.2423400	0.1104600	0.6762800	-0.4306900	0.1626300	0.6752800	-0.4292600	0.1625300	0.6679400	-0.2242700	0.1125800	0.7465900	-0.4490800	-0.1082200	0.7457800	-0.4476300	-0.1085900	0.7397900	-0.2224200	-0.0610800
229	3.8000000	0.3192900	0.7902900	-0.1450500	0.3936100	0.7806800	-0.2944100	0.3687000	0.5205900	-0.3930600	0.1622900	0.7368500	-0.4399700	0.2614400	0.8017800	0.0109800	0.1730800	0.5628700	0.1210600	0.0005200	0.7839900	-0.0259300	0.2921600	0.2296500	-0.1326100	0.3343600	0.2271300	-0.2373300	0.3033200	-0.1682400	-0.2846100	0.6808900	-0.2471800	-0.1043800	0.2584200	0.2347900	-0.0250600	0.2000600	-0.1564800	-0.0003500	0.6077400	-0.2424500	0.1108300	0.6770000	-0.4307600	0.1631300	0.6759600	-0.4293300	0.1630200	0.6672500	-0.2240300	0.1127800	0.7488500	-0.4470900	-0.1064600	0.7480100	-0.4456800	-0.1068700	0.7403500	-0.2207200	-0.0618200
230	3.8166667	0.3163400	0.7904100	-0.1462600	0.3900800	0.7808400	-0.2958400	0.3664000	0.5205500	-0.3943100	0.1585100	0.7379100	-0.4413800	0.2591100	0.8021000	0.0098900	0.1709700	0.5635000	0.1203500	-0.0009000	0.7839700	-0.0261600	0.2912400	0.2298500	-0.1330700	0.3330600	0.2271600	-0.2377700	0.3034200	-0.1677700	-0.2847500	0.6813600	-0.2461300	-0.1048600	0.2580200	0.2350500	-0.0254900	0.2001000	-0.1563400	-0.0003100	0.6073500	-0.2422300	0.1111300	0.6778100	-0.4301700	0.1635800	0.6767400	-0.4287400	0.1634600	0.6663900	-0.2233700	0.1128400	0.7509900	-0.4451200	-0.1047800	0.7501400	-0.4437800	-0.1052200	0.7411200	-0.2189300	-0.0624800
231	3.8333333	0.3132900	0.7904500	-0.1475300	0.3864200	0.7804400	-0.2973000	0.3640700	0.5205900	-0.3955800	0.1551800	0.7369100	-0.4426000	0.2567000	0.8024000	0.0087900	0.1687700	0.5640500	0.1195900	-0.0028600	0.7843600	-0.0268600	0.2901400	0.2300300	-0.1336500	0.3316500	0.2273700	-0.2383500	0.3032900	-0.1675300	-0.2849200	0.6820100	-0.2450300	-0.1052600	0.2573100	0.2353300	-0.0260700	0.2001500	-0.1562300	-0.0002400	0.6069800	-0.2416500	0.1113800	0.6788300	-0.4289900	0.1640000	0.6777500	-0.4276000	0.1638900	0.6656800	-0.2227900	0.1129700	0.7529700	-0.4433200	-0.1031600	0.7521000	-0.4420100	-0.1036300	0.7421200	-0.2169500	-0.0630400
232	3.8500000	0.3100200	0.7904800	-0.1488700	0.3824900	0.7803500	-0.2989400	0.3617000	0.5206500	-0.3968200	0.1517800	0.7372500	-0.4440500	0.2541300	0.8026400	0.0076800	0.1663700	0.5644700	0.1187500	-0.0052500	0.7830800	-0.0276700	0.2887600	0.2302000	-0.1343800	0.3301000	0.2275600	-0.2390500	0.3028200	-0.1673300	-0.2851700	0.6829000	-0.2438300	-0.1055800	0.2561900	0.2354800	-0.0268100	0.2002400	-0.1560800	-0.0001200	0.6068400	-0.2409400	0.1117300	0.6803400	-0.4278800	0.1645700	0.6792200	-0.4265000	0.1644500	0.6647000	-0.2211900	0.1129200	0.7546500	-0.4417500	-0.1015800	0.7537700	-0.4404800	-0.1020800	0.7433800	-0.2147900	-0.0634800
233	3.8666667	0.3065100	0.7904600	-0.1502700	0.3783000	0.7799800	-0.3006600	0.3592700	0.5206500	-0.3980000	0.1488000	0.7357500	-0.4453400	0.2513500	0.8028500	0.0065400	0.1636500	0.5647600	0.1177800	-0.0084300	0.7849700	-0.0294300	0.2870400	0.2303600	-0.1352900	0.3282900	0.2279700	-0.2399700	0.3021000	-0.1672300	-0.2854900	0.6840500	-0.2426000	-0.1058100	0.2546400	0.2354600	-0.0277100	0.2004100	-0.1558600	0.0000400	0.6068500	-0.2396800	0.1121000	0.6816800	-0.4261100	0.1650200	0.6805200	-0.4247200	0.1648900	0.6643000	-0.2199200	0.1131400	0.7560600	-0.4404900	-0.1000100	0.7551700	-0.4392300	-0.1005500	0.7449500	-0.2126400	-0.0637600
234	3.8833333	0.3027600	0.7903800	-0.1517200	0.3738400	0.7797500	-0.3024700	0.3567600	0.5207000	-0.3991200	0.1455100	0.7369500	-0.4470200	0.2483400	0.8029900	0.0053900	0.1606200	0.5648300	0.1166900	-0.0117900	0.7817400	-0.0305800	0.2849900	0.2305500	-0.1363500	0.3263000	0.2283200	-0.2410000	0.3012400	-0.1671700	-0.2858400	0.6854100	-0.2413900	-0.1060100	0.2525600	0.2356000	-0.0287900	0.2006700	-0.1556000	0.0002300	0.6071600	-0.2379600	0.1125700	0.6829000	-0.4241100	0.1654300	0.6817200	-0.4227100	0.1653000	0.6640500	-0.2177500	0.1133000	0.7573000	-0.4392700	-0.0984600	0.7563900	-0.4380100	-0.0990400	0.7466500	-0.2104700	-0.0640000
235	3.9000000	0.2988400	0.7903400	-0.1531700	0.3692300	0.7797500	-0.3043100	0.3541800	0.5207100	-0.4001600	0.1422700	0.7377500	-0.4487200	0.2451300	0.8030500	0.0042400	0.1572900	0.5647200	0.1154900	-0.0158300	0.7826500	-0.0326300	0.2826500	0.2307700	-0.1375200	0.3241200	0.2287100	-0.2421300	0.3003800	-0.1672600	-0.2861800	0.6868600	-0.2403200	-0.1062600	0.2501300	0.2356400	-0.0299500	0.2009500	-0.1553000	0.0004000	0.6078500	-0.2359000	0.1131500	0.6838700	-0.4219900	0.1657900	0.6826600	-0.4205600	0.1656700	0.6641000	-0.2148400	0.1134400	0.7587800	-0.4381900	-0.0968200	0.7578500	-0.4369300	-0.0974500	0.7483000	-0.2084100	-0.0643100
